<?xml version="1.0" standalone="no"?>
<!DOCTYPE svg PUBLIC "-//W3C//DTD SVG 20010904//EN"
 "http://www.w3.org/TR/2001/REC-SVG-20010904/DTD/svg10.dtd">
<svg version="1.0" xmlns="http://www.w3.org/2000/svg"
 width="900.000000pt" height="900.000000pt" viewBox="0 0 900.000000 900.000000"
 preserveAspectRatio="xMidYMid meet">
<metadata>
Created by potrace 1.14, written by Peter Selinger 2001-2017
</metadata>
<g transform="translate(0.000000,900.000000) scale(0.100000,-0.100000)"
fill="#000000" stroke="none">
<path d="M0 4500 l0 -4500 4500 0 4500 0 0 4500 0 4500 -4500 0 -4500 0 0
-4500z m2675 3574 c302 -49 594 -196 805 -406 143 -142 3196 -3451 3212 -3481
10 -19 17 -55 18 -90 0 -100 -54 -172 -151 -198 -59 -16 -107 -6 -163 34 -25
18 -763 808 -1640 1757 -1267 1371 -1610 1736 -1670 1780 -133 97 -289 165
-461 201 -88 19 -313 16 -410 -5 -426 -93 -747 -412 -851 -846 -17 -71 -19
-213 -21 -2748 -3 -2385 -2 -2676 12 -2702 33 -64 -51 -60 1338 -60 l1264 0
44 -23 c132 -70 145 -246 26 -341 l-39 -31 -1316 -3 c-1181 -2 -1322 -1 -1372
14 -158 45 -288 171 -342 333 l-23 66 -3 2615 c-2 1697 1 2661 7 2746 17 223
68 413 156 584 305 590 930 908 1580 804z m5096 -2 c160 -54 280 -176 336
-342 17 -53 18 -160 21 -2665 2 -1654 -1 -2660 -7 -2746 -16 -216 -55 -372
-137 -547 -200 -430 -590 -736 -1065 -839 -122 -26 -468 -26 -589 1 -285 62
-546 199 -740 389 -144 140 -3205 3459 -3223 3494 -25 48 -24 130 2 181 33 66
111 112 186 112 86 0 47 40 1704 -1755 864 -935 1606 -1732 1651 -1771 370
-325 906 -361 1320 -86 265 176 444 468 479 785 8 66 11 921 11 2709 0 2594 0
2613 -20 2646 -11 18 -32 37 -46 42 -16 6 -492 10 -1288 10 l-1263 0 -44 23
c-127 67 -146 238 -37 332 23 19 59 39 82 44 25 5 552 9 1321 8 l1280 -2 66
-23z"/>
</g>
</svg>
